# xmcd
#
# Track frame offsets:
#	150
#	13426
#	28857
#	42473
#	55022
#	66141
#	77863
#	96414
#	110235
#	124689
#	139951
#	151643
#	163688
#	177858
#	188789
#	203035
#	218751
#	234008
#	247624
#	263741
#
# Disc length: 3677 seconds
#
# Revision: 0
# Processed by: cddbd v1.5.2PL0 Copyright (c) Steve Scherf et al.
# Submitted via: EasyCDDAExtractor 4.6.9.1
#
DISCID=120e5b14
DTITLE=Kenny Rogers - Ruby Don't Take Your Love To Town
DYEAR=1900
DGENRE=Country
TTITLE0=Ruby Don't Take Your Love To Town
TTITLE1=For The Good Times
TTITLE2=A Stranger In My Place
TTITLE3=Rueben James
TTITLE4=Always Leaving, Always Gone
TTITLE5=Poem For My Little Lady
TTITLE6=The King Of Oak Street
TTITLE7=I'm Gonna Sing a Sad Song Susy
TTITLE8=It's Raining in my Mind
TTITLE9=Tell  It All Brother
TTITLE10=Me and Bobby Mc gee
TTITLE11=Calico Silver
TTITLE12=Molly
TTITLE13=She Even Woke Me Up To Say Goodbye
TTITLE14=Sunshine
TTITLE15=My Washington Woman
TTITLE16=Conditions (Just Dropped In)
TTITLE17=Sleep Comes Easy
TTITLE18=Tulsa Turnaround
TTITLE19=Elvira
EXTD=
EXTT0=
EXTT1=
EXTT2=
EXTT3=
EXTT4=
EXTT5=
EXTT6=
EXTT7=
EXTT8=
EXTT9=
EXTT10=
EXTT11=
EXTT12=
EXTT13=
EXTT14=
EXTT15=
EXTT16=
EXTT17=
EXTT18=
EXTT19=
PLAYORDER=
